<?xml version="1.0" encoding="UTF-8"?>
<svg id="Layer_1" data-name="Layer 1" xmlns="http://www.w3.org/2000/svg" viewBox="0 0 544.22 544.22">
  <defs>
    <style>
      .cls-1 {
        fill: #470137;
      }
    </style>
  </defs>
  <path class="cls-1" d="m272.11,0C2.1,0,0,121.83,0,272.11s2.1,272.11,272.11,272.11,272.11-121.83,272.11-272.11S542.12,0,272.11,0Zm-85.37,387.04c-14.67.02-29.33.02-44,0-9.67-.01-16.22-6.55-16.23-16.25-.02-32.98,0-65.97,0-98.95,0-32.74,0-65.49,0-98.23,0-8.39,4.76-14.6,12.43-16.15,1.16-.24,2.38-.27,3.57-.27,14.97-.02,29.93-.04,44.9,0,7.7.02,13.66,4.65,15.32,11.82.33,1.44.45,2.96.45,4.45.02,65.73.02,131.45.01,197.18,0,9.94-6.48,16.38-16.45,16.39Zm118.94-4.28c-3.04,2.93-6.74,4.27-10.92,4.27-15.09.03-30.17.08-45.26-.01-9.18-.05-15.69-6.7-15.69-15.84-.01-66.02-.01-132.05,0-198.07,0-9.4,6.49-15.89,15.93-15.92,14.91-.04,29.81-.04,44.72,0,9.56.03,15.93,6.45,15.94,16.06.02,32.92,0,65.84.01,98.77,0,32.86-.02,65.72.02,98.59,0,4.73-1.32,8.83-4.75,12.15Zm95.83,4.28c-14.73.03-29.45.03-44.18,0-9.75-.02-16.2-6.47-16.21-16.22-.02-32.92,0-65.84,0-98.77,0-32.86,0-65.72,0-98.59,0-7.65,3.76-13.28,10.45-15.46,1.73-.56,3.64-.78,5.46-.79,14.91-.06,29.81-.07,44.72-.02,9.53.03,15.96,6.52,15.96,16.07,0,65.84,0,131.69,0,197.53,0,9.73-6.47,16.23-16.2,16.25Z"/>
</svg>